<svg version="1.1" id="Layer_1" xmlns="http://www.w3.org/2000/svg" x="0" y="0" width="612" height="191.25" xml:space="preserve"><path fill="#010101" d="M592.923 191.25H19.173c-10.519 0-19.125-8.606-19.125-19.125v-153C.048 8.606 8.654 0 19.173 0h573.75c10.519 0 19.125 8.606 19.125 19.125v153c0 10.519-8.607 19.125-19.125 19.125z"/><g fill="#FFF"><path d="M144.254 38.244c-31.603 0-57.493 24.367-59.954 55.336l32.245 13.331a16.935 16.935 0 0 1 9.585-2.959c.318 0 .635.008.949.025l14.34-20.785-.002-.292c0-12.512 10.178-22.69 22.689-22.69 12.509 0 22.687 10.178 22.687 22.69 0 12.51-10.178 22.689-22.687 22.689-.174 0-.344-.004-.515-.008l-20.452 14.592c.011.268.019.537.019.807 0 9.391-7.639 17.031-17.029 17.031-8.243 0-15.135-5.885-16.697-13.676l-23.061-9.533c7.14 25.252 30.34 43.766 57.882 43.766 33.227 0 60.161-26.936 60.161-60.162s-26.934-60.162-60.16-60.162z"/><path d="m122.002 129.529-7.39-3.053a12.717 12.717 0 0 0 6.583 6.264c6.502 2.709 14-.377 16.71-6.883a12.69 12.69 0 0 0 .02-9.779 12.706 12.706 0 0 0-6.901-6.932c-3.126-1.303-6.477-1.254-9.42-.143l7.636 3.154a9.41 9.41 0 0 1 5.065 12.305c-1.997 4.798-7.507 7.067-12.303 5.067zM179.222 82.899c0-8.337-6.781-15.12-15.117-15.12-8.336 0-15.12 6.783-15.12 15.12 0 8.335 6.784 15.117 15.12 15.117 8.336 0 15.117-6.782 15.117-15.117zm-26.449-.026c0-6.273 5.086-11.355 11.357-11.355 6.273 0 11.357 5.082 11.357 11.355 0 6.273-5.084 11.355-11.357 11.355-6.271 0-11.357-5.082-11.357-11.355zM268.666 79.405l-4.03 7.087c-3.105-2.17-7.313-3.475-10.986-3.475-4.199 0-6.797 1.737-6.797 4.85 0 3.783 4.615 4.664 11.475 7.125 7.372 2.608 11.609 5.672 11.609 12.424 0 9.236-7.266 14.428-17.707 14.428-5.09 0-11.229-1.314-15.948-4.184l2.94-7.857c3.835 2.025 8.42 3.225 12.509 3.225 5.511 0 8.131-2.033 8.131-5.039 0-3.439-3.996-4.473-10.442-6.607-7.348-2.453-12.439-5.671-12.439-13.146 0-8.428 6.749-13.268 16.461-13.268 6.766 0 12.205 2.144 15.224 4.437zM300.175 83.885v37.182h-9.49V83.885h-13.776v-8.141h37.003v8.141h-13.737zM333.922 83.859v10.213h18.164v8.14h-18.164v10.639h21.072v8.215h-30.563V75.744h30.563v8.115h-21.072zM376.182 112.266l-3.002 8.801h-9.949l16.994-45.322h9.555l17.473 45.322h-10.287l-3.066-8.801h-17.718zm8.763-25.709-6.186 18.146h12.506l-6.32-18.146zM455.961 93.261l-12.402 26.485h-5.355L426.002 93.5v27.567h-9.09V75.744h9.066l15.234 32.715 14.689-32.715h9.148v45.322h-9.09V93.261zM483.4 81.461c0 3.894-2.918 6.322-6.27 6.322-3.361 0-6.287-2.428-6.287-6.322 0-3.895 2.926-6.306 6.287-6.306 3.352 0 6.27 2.411 6.27 6.306zm-11.502 0c0 3.257 2.348 5.304 5.232 5.304 2.875 0 5.211-2.047 5.211-5.304 0-3.269-2.336-5.284-5.211-5.284-2.878 0-5.232 2.04-5.232 5.284zm5.323-3.221c1.623 0 2.17.859 2.17 1.788 0 .851-.504 1.422-1.121 1.713l1.457 2.731h-1.193l-1.229-2.42h-1.266v2.42h-.994V78.24h2.176zm-1.172 2.898h1.111c.713 0 1.137-.45 1.137-1.016 0-.571-.303-.937-1.143-.937h-1.105v1.953z"/></g><g fill="#F1F2F2"><path d="M260.092 49.995a11.269 11.269 0 0 1-2.652 3.865c-1.144 1.086-2.508 1.941-4.09 2.564-1.582.624-3.322.936-5.216.936h-8.423V33.099h8.423c1.894 0 3.634.306 5.216.918s2.946 1.461 4.09 2.547a11.307 11.307 0 0 1 2.652 3.847c.623 1.479.936 3.073.936 4.783 0 1.711-.313 3.31-.936 4.801zm-2.617-8.509a9.107 9.107 0 0 0-2.01-3.067c-.867-.866-1.924-1.547-3.172-2.045-1.248-.497-2.635-.745-4.159-.745h-5.685V54.83h5.685c1.524 0 2.911-.243 4.159-.728 1.248-.485 2.305-1.161 3.172-2.028a9.184 9.184 0 0 0 2.01-3.033c.473-1.155.711-2.414.711-3.778a10.05 10.05 0 0 0-.711-3.777zM289.586 49.995a12.566 12.566 0 0 1-2.529 4.003c-1.087 1.156-2.393 2.074-3.917 2.755s-3.212 1.022-5.061 1.022-3.53-.335-5.043-1.005-2.813-1.577-3.899-2.721a12.093 12.093 0 0 1-2.512-3.986 13.094 13.094 0 0 1-.885-4.8c0-1.686.301-3.287.901-4.8a12.556 12.556 0 0 1 2.53-4.003c1.086-1.155 2.392-2.074 3.916-2.755 1.525-.681 3.212-1.022 5.061-1.022s3.529.335 5.043 1.005c1.514.67 2.813 1.577 3.899 2.721a12.139 12.139 0 0 1 2.513 3.986c.59 1.514.884 3.114.884 4.8.001 1.686-.3 3.287-.901 4.8zm-2.651-8.648a9.613 9.613 0 0 0-1.993-3.188 9.64 9.64 0 0 0-3.032-2.149c-1.167-.531-2.443-.797-3.83-.797-1.386 0-2.663.26-3.829.78a9.01 9.01 0 0 0-2.998 2.131 9.97 9.97 0 0 0-1.959 3.171c-.474 1.213-.711 2.513-.711 3.899 0 1.387.237 2.692.711 3.917a9.634 9.634 0 0 0 1.993 3.189 9.652 9.652 0 0 0 3.032 2.149c1.167.532 2.443.797 3.83.797s2.663-.26 3.83-.78a9.04 9.04 0 0 0 2.998-2.131 9.967 9.967 0 0 0 1.958-3.171c.474-1.213.71-2.513.71-3.899 0-1.388-.236-2.693-.71-3.918zM310.973 33.029h2.252l6.654 20.275 6.932-20.206h2.877l-8.664 24.435h-2.322l-6.654-19.687-6.691 19.687h-2.287l-8.665-24.435h2.981l6.932 20.206 6.655-20.275zM352.492 33.099h2.67V57.36h-2.184l-15.666-19.895V57.36h-2.668V33.099h2.564l15.283 19.443V33.099zM362.025 33.099h2.736V54.83h13.656v2.53h-16.393V33.099zM406.248 49.995a12.514 12.514 0 0 1-2.529 4.003c-1.086 1.156-2.393 2.074-3.916 2.755-1.525.681-3.213 1.022-5.061 1.022-1.85 0-3.529-.335-5.043-1.005s-2.814-1.577-3.898-2.721a12.082 12.082 0 0 1-2.514-3.986 13.094 13.094 0 0 1-.885-4.8c0-1.686.301-3.287.902-4.8a12.536 12.536 0 0 1 2.529-4.003c1.086-1.155 2.393-2.074 3.916-2.755 1.525-.681 3.213-1.022 5.061-1.022 1.85 0 3.529.335 5.043 1.005 1.514.67 2.813 1.577 3.9 2.721a12.087 12.087 0 0 1 2.512 3.986c.59 1.514.885 3.114.885 4.8s-.3 3.287-.902 4.8zm-2.65-8.648c-.475-1.224-1.139-2.288-1.994-3.188a9.647 9.647 0 0 0-3.031-2.149c-1.168-.531-2.443-.797-3.83-.797s-2.664.26-3.83.78c-1.168.52-2.166 1.23-2.998 2.131s-1.484 1.958-1.959 3.171c-.473 1.213-.709 2.513-.709 3.899 0 1.387.236 2.692.709 3.917a9.636 9.636 0 0 0 1.994 3.189 9.647 9.647 0 0 0 3.031 2.149c1.168.532 2.445.797 3.83.797 1.387 0 2.664-.26 3.83-.78s2.166-1.23 2.998-2.131a9.987 9.987 0 0 0 1.959-3.171c.473-1.213.711-2.513.711-3.899a10.8 10.8 0 0 0-.711-3.918zM435.535 57.36h-2.945l-2.842-6.412h-13.205l-2.877 6.412h-2.809l11.057-24.435h2.564l11.057 24.435zm-12.373-21.212-5.545 12.374h11.057l-5.512-12.374zM460.697 49.995a11.263 11.263 0 0 1-2.65 3.865c-1.145 1.086-2.508 1.941-4.09 2.564-1.584.624-3.322.936-5.217.936h-8.422V33.099h8.422c1.895 0 3.633.306 5.217.918 1.582.612 2.945 1.461 4.09 2.547a11.302 11.302 0 0 1 2.65 3.847c.625 1.479.938 3.073.938 4.783 0 1.711-.313 3.31-.938 4.801zm-2.615-8.509a9.082 9.082 0 0 0-2.012-3.067c-.865-.866-1.922-1.547-3.17-2.045-1.248-.497-2.635-.745-4.16-.745h-5.684V54.83h5.684c1.525 0 2.912-.243 4.16-.728 1.248-.485 2.305-1.161 3.17-2.028a9.159 9.159 0 0 0 2.012-3.033c.473-1.155.709-2.414.709-3.778 0-1.339-.236-2.598-.709-3.777zM500.59 49.995a12.514 12.514 0 0 1-2.529 4.003c-1.086 1.156-2.393 2.074-3.916 2.755-1.525.681-3.213 1.022-5.061 1.022-1.85 0-3.529-.335-5.043-1.005s-2.814-1.577-3.898-2.721a12.082 12.082 0 0 1-2.514-3.986 13.094 13.094 0 0 1-.885-4.8c0-1.686.301-3.287.902-4.8a12.536 12.536 0 0 1 2.529-4.003c1.086-1.155 2.393-2.074 3.916-2.755 1.525-.681 3.213-1.022 5.061-1.022 1.85 0 3.529.335 5.043 1.005 1.514.67 2.813 1.577 3.9 2.721a12.087 12.087 0 0 1 2.512 3.986c.59 1.514.885 3.114.885 4.8s-.301 3.287-.902 4.8zm-2.651-8.648c-.475-1.224-1.139-2.288-1.994-3.188a9.647 9.647 0 0 0-3.031-2.149c-1.168-.531-2.443-.797-3.83-.797s-2.664.26-3.83.78c-1.168.52-2.166 1.23-2.998 2.131s-1.484 1.958-1.959 3.171c-.473 1.213-.709 2.513-.709 3.899 0 1.387.236 2.692.709 3.917a9.636 9.636 0 0 0 1.994 3.189 9.647 9.647 0 0 0 3.031 2.149c1.168.532 2.445.797 3.83.797 1.387 0 2.664-.26 3.83-.78s2.166-1.23 2.998-2.131a9.987 9.987 0 0 0 1.959-3.171c.473-1.213.711-2.513.711-3.899 0-1.388-.238-2.693-.711-3.918zM525.129 33.099h2.668V57.36h-2.184l-15.666-19.895V57.36h-2.668V33.099h2.564l15.285 19.443V33.099z"/></g></svg>